<?xml version="1.0" encoding="utf-8"?>
<svg xmlns="http://www.w3.org/2000/svg" xmlns:xlink="http://www.w3.org/1999/xlink" style="margin: auto; background: rgb(241, 242, 243); display: block; z-index: 1; position: relative; shape-rendering: auto;" width="1803" height="873" preserveAspectRatio="xMidYMid" viewBox="0 0 1803 873">
<g transform="translate(901.5,436.5) scale(1,1) translate(-901.5,-436.5)"><defs>
<linearGradient id="lg-0.009430208578023347" x1="0" x2="0" y1="0" y2="1">
  <stop stop-color="#6d0044" offset="0.35000000000000003"></stop>
  <stop stop-color="#440130" offset="0.675"></stop>
  <stop stop-color="#440130" offset="1"></stop>
</linearGradient>
<linearGradient id="fg-lg-0.009430208578023347" x1="0" x2="0" y1="0" y2="1">
  <stop stop-color="#6d0044" stop-opacity="1" offset="0.35000000000000003"></stop>
  <stop stop-color="#440130" stop-opacity="0.6" offset="0.615"></stop>
  <stop stop-color="#440130" stop-opacity="0" offset="1"></stop>
</linearGradient>
<style type="text/css">
  path { fill: none; stroke: #00ffff; stroke-width: 2px }
</style>
</defs>
<rect x="0" y="0" width="1803" height="873" fill="url(#lg-0.009430208578023347)"></rect><path d="M0 305.55 L-12621 873"></path><path d="M13.86923076923077 305.55 L-12412.961538461539 873"></path><path d="M27.73846153846154 305.55 L-12204.923076923076 873"></path><path d="M41.60769230769231 305.55 L-11996.884615384615 873"></path><path d="M55.47692307692308 305.55 L-11788.846153846154 873"></path><path d="M69.34615384615384 305.55 L-11580.807692307691 873"></path><path d="M83.21538461538462 305.55 L-11372.76923076923 873"></path><path d="M97.08461538461539 305.55 L-11164.73076923077 873"></path><path d="M110.95384615384616 305.55 L-10956.692307692309 873"></path><path d="M124.82307692307693 305.55 L-10748.653846153846 873"></path><path d="M138.69230769230768 305.55 L-10540.615384615385 873"></path><path d="M152.56153846153848 305.55 L-10332.576923076922 873"></path><path d="M166.43076923076924 305.55 L-10124.538461538461 873"></path><path d="M180.3 305.55 L-9916.5 873"></path><path d="M194.16923076923078 305.55 L-9708.461538461539 873"></path><path d="M208.03846153846155 305.55 L-9500.423076923078 873"></path><path d="M221.90769230769232 305.55 L-9292.384615384615 873"></path><path d="M235.77692307692308 305.55 L-9084.346153846154 873"></path><path d="M249.64615384615385 305.55 L-8876.307692307691 873"></path><path d="M263.5153846153846 305.55 L-8668.26923076923 873"></path><path d="M277.38461538461536 305.55 L-8460.23076923077 873"></path><path d="M291.25384615384615 305.55 L-8252.192307692309 873"></path><path d="M305.12307692307695 305.55 L-8044.153846153846 873"></path><path d="M318.9923076923077 305.55 L-7836.115384615385 873"></path><path d="M332.8615384615385 305.55 L-7628.076923076923 873"></path><path d="M346.7307692307692 305.55 L-7420.038461538462 873"></path><path d="M360.6 305.55 L-7212 873"></path><path d="M374.46923076923076 305.55 L-7003.961538461538 873"></path><path d="M388.33846153846156 305.55 L-6795.923076923077 873"></path><path d="M402.2076923076923 305.55 L-6587.884615384615 873"></path><path d="M416.0769230769231 305.55 L-6379.846153846154 873"></path><path d="M429.94615384615383 305.55 L-6171.807692307692 873"></path><path d="M443.81538461538463 305.55 L-5963.7692307692305 873"></path><path d="M457.68461538461537 305.55 L-5755.7307692307695 873"></path><path d="M471.55384615384617 305.55 L-5547.692307692308 873"></path><path d="M485.4230769230769 305.55 L-5339.653846153846 873"></path><path d="M499.2923076923077 305.55 L-5131.615384615385 873"></path><path d="M513.1615384615385 305.55 L-4923.576923076923 873"></path><path d="M527.0307692307692 305.55 L-4715.538461538462 873"></path><path d="M540.9 305.55 L-4507.5 873"></path><path d="M554.7692307692307 305.55 L-4299.461538461539 873"></path><path d="M568.6384615384616 305.55 L-4091.423076923076 873"></path><path d="M582.5076923076923 305.55 L-3883.3846153846152 873"></path><path d="M596.376923076923 305.55 L-3675.3461538461543 873"></path><path d="M610.2461538461539 305.55 L-3467.3076923076915 873"></path><path d="M624.1153846153846 305.55 L-3259.2692307692305 873"></path><path d="M637.9846153846154 305.55 L-3051.2307692307695 873"></path><path d="M651.8538461538461 305.55 L-2843.1923076923085 873"></path><path d="M665.723076923077 305.55 L-2635.1538461538457 873"></path><path d="M679.5923076923077 305.55 L-2427.1153846153848 873"></path><path d="M693.4615384615385 305.55 L-2219.076923076924 873"></path><path d="M707.3307692307692 305.55 L-2011.038461538461 873"></path><path d="M721.2 305.55 L-1803 873"></path><path d="M735.0692307692308 305.55 L-1594.961538461539 873"></path><path d="M748.9384615384615 305.55 L-1386.9230769230762 873"></path><path d="M762.8076923076923 305.55 L-1178.8846153846152 873"></path><path d="M776.6769230769231 305.55 L-970.8461538461543 873"></path><path d="M790.5461538461539 305.55 L-762.8076923076915 873"></path><path d="M804.4153846153846 305.55 L-554.7692307692305 873"></path><path d="M818.2846153846153 305.55 L-346.7307692307695 873"></path><path d="M832.1538461538462 305.55 L-138.69230769230853 873"></path><path d="M846.0230769230769 305.55 L69.34615384615427 873"></path><path d="M859.8923076923077 305.55 L277.38461538461524 873"></path><path d="M873.7615384615384 305.55 L485.4230769230762 873"></path><path d="M887.6307692307693 305.55 L693.461538461539 873"></path><path d="M901.5 305.55 L901.5 873"></path><path d="M915.3692307692307 305.55 L1109.538461538461 873"></path><path d="M929.2384615384616 305.55 L1317.5769230769238 873"></path><path d="M943.1076923076923 305.55 L1525.6153846153848 873"></path><path d="M956.9769230769231 305.55 L1733.6538461538457 873"></path><path d="M970.8461538461538 305.55 L1941.6923076923085 873"></path><path d="M984.7153846153847 305.55 L2149.7307692307695 873"></path><path d="M998.5846153846154 305.55 L2357.7692307692305 873"></path><path d="M1012.4538461538461 305.55 L2565.8076923076915 873"></path><path d="M1026.323076923077 305.55 L2773.8461538461543 873"></path><path d="M1040.1923076923076 305.55 L2981.8846153846152 873"></path><path d="M1054.0615384615385 305.55 L3189.923076923076 873"></path><path d="M1067.9307692307693 305.55 L3397.961538461539 873"></path><path d="M1081.8 305.55 L3606 873"></path><path d="M1095.6692307692308 305.55 L3814.038461538461 873"></path><path d="M1109.5384615384614 305.55 L4022.076923076922 873"></path><path d="M1123.4076923076923 305.55 L4230.115384615383 873"></path><path d="M1137.2769230769231 305.55 L4438.153846153848 873"></path><path d="M1151.1461538461538 305.55 L4646.1923076923085 873"></path><path d="M1165.0153846153846 305.55 L4854.2307692307695 873"></path><path d="M1178.8846153846155 305.55 L5062.2692307692305 873"></path><path d="M1192.753846153846 305.55 L5270.3076923076915 873"></path><path d="M1206.623076923077 305.55 L5478.346153846152 873"></path><path d="M1220.4923076923078 305.55 L5686.384615384617 873"></path><path d="M1234.3615384615384 305.55 L5894.423076923078 873"></path><path d="M1248.2307692307693 305.55 L6102.461538461539 873"></path><path d="M1262.1 305.55 L6310.5 873"></path><path d="M1275.9692307692308 305.55 L6518.538461538461 873"></path><path d="M1289.8384615384616 305.55 L6726.576923076922 873"></path><path d="M1303.7076923076922 305.55 L6934.615384615383 873"></path><path d="M1317.576923076923 305.55 L7142.653846153848 873"></path><path d="M1331.446153846154 305.55 L7350.6923076923085 873"></path><path d="M1345.3153846153846 305.55 L7558.7307692307695 873"></path><path d="M1359.1846153846154 305.55 L7766.7692307692305 873"></path><path d="M1373.053846153846 305.55 L7974.8076923076915 873"></path><path d="M1386.923076923077 305.55 L8182.846153846152 873"></path><path d="M1400.7923076923078 305.55 L8390.884615384617 873"></path><path d="M1414.6615384615384 305.55 L8598.923076923078 873"></path><path d="M1428.5307692307692 305.55 L8806.961538461539 873"></path><path d="M1442.4 305.55 L9015 873"></path><path d="M1456.2692307692307 305.55 L9223.038461538461 873"></path><path d="M1470.1384615384616 305.55 L9431.076923076922 873"></path><path d="M1484.0076923076922 305.55 L9639.115384615383 873"></path><path d="M1497.876923076923 305.55 L9847.153846153848 873"></path><path d="M1511.746153846154 305.55 L10055.192307692309 873"></path><path d="M1525.6153846153845 305.55 L10263.23076923077 873"></path><path d="M1539.4846153846154 305.55 L10471.26923076923 873"></path><path d="M1553.3538461538462 305.55 L10679.307692307691 873"></path><path d="M1567.2230769230769 305.55 L10887.346153846152 873"></path><path d="M1581.0923076923077 305.55 L11095.384615384617 873"></path><path d="M1594.9615384615386 305.55 L11303.423076923078 873"></path><path d="M1608.8307692307692 305.55 L11511.461538461539 873"></path><path d="M1622.7 305.55 L11719.5 873"></path><path d="M1636.5692307692307 305.55 L11927.538461538461 873"></path><path d="M1650.4384615384615 305.55 L12135.576923076922 873"></path><path d="M1664.3076923076924 305.55 L12343.615384615383 873"></path><path d="M1678.176923076923 305.55 L12551.653846153848 873"></path><path d="M1692.0461538461539 305.55 L12759.692307692309 873"></path><path d="M1705.9153846153847 305.55 L12967.73076923077 873"></path><path d="M1719.7846153846153 305.55 L13175.76923076923 873"></path><path d="M1733.6538461538462 305.55 L13383.807692307691 873"></path><path d="M1747.5230769230768 305.55 L13591.846153846152 873"></path><path d="M1761.3923076923077 305.55 L13799.884615384617 873"></path><path d="M1775.2615384615385 305.55 L14007.923076923078 873"></path><path d="M1789.1307692307691 305.55 L14215.961538461539 873"></path><path d="M1803 305.55 L14424 873"></path><g>
<path d="M0 305.55 L1803 305.55"></path>
<animateTransform attributeName="transform" type="translate" repeatCount="indefinite" calcMode="linear" keyTimes="0;1" values="0 0;0 4.297846153846153" begin="0s" dur="0.8333333333333334s"></animateTransform>

</g><g>
<path d="M0 309.84784615384615 L1803 309.84784615384615"></path>
<animateTransform attributeName="transform" type="translate" repeatCount="indefinite" calcMode="linear" keyTimes="0;1" values="0 0;0 8.595692307692307" begin="0s" dur="0.8333333333333334s"></animateTransform>

</g><g>
<path d="M0 318.4435384615385 L1803 318.4435384615385"></path>
<animateTransform attributeName="transform" type="translate" repeatCount="indefinite" calcMode="linear" keyTimes="0;1" values="0 0;0 12.89353846153846" begin="0s" dur="0.8333333333333334s"></animateTransform>

</g><g>
<path d="M0 331.33707692307695 L1803 331.33707692307695"></path>
<animateTransform attributeName="transform" type="translate" repeatCount="indefinite" calcMode="linear" keyTimes="0;1" values="0 0;0 17.191384615384614" begin="0s" dur="0.8333333333333334s"></animateTransform>

</g><g>
<path d="M0 348.52846153846156 L1803 348.52846153846156"></path>
<animateTransform attributeName="transform" type="translate" repeatCount="indefinite" calcMode="linear" keyTimes="0;1" values="0 0;0 21.489230769230765" begin="0s" dur="0.8333333333333334s"></animateTransform>

</g><g>
<path d="M0 370.0176923076923 L1803 370.0176923076923"></path>
<animateTransform attributeName="transform" type="translate" repeatCount="indefinite" calcMode="linear" keyTimes="0;1" values="0 0;0 25.787076923076917" begin="0s" dur="0.8333333333333334s"></animateTransform>

</g><g>
<path d="M0 395.80476923076924 L1803 395.80476923076924"></path>
<animateTransform attributeName="transform" type="translate" repeatCount="indefinite" calcMode="linear" keyTimes="0;1" values="0 0;0 30.08492307692307" begin="0s" dur="0.8333333333333334s"></animateTransform>

</g><g>
<path d="M0 425.8896923076923 L1803 425.8896923076923"></path>
<animateTransform attributeName="transform" type="translate" repeatCount="indefinite" calcMode="linear" keyTimes="0;1" values="0 0;0 34.38276923076922" begin="0s" dur="0.8333333333333334s"></animateTransform>

</g><g>
<path d="M0 460.2724615384615 L1803 460.2724615384615"></path>
<animateTransform attributeName="transform" type="translate" repeatCount="indefinite" calcMode="linear" keyTimes="0;1" values="0 0;0 38.68061538461537" begin="0s" dur="0.8333333333333334s"></animateTransform>

</g><g>
<path d="M0 498.9530769230769 L1803 498.9530769230769"></path>
<animateTransform attributeName="transform" type="translate" repeatCount="indefinite" calcMode="linear" keyTimes="0;1" values="0 0;0 42.978461538461524" begin="0s" dur="0.8333333333333334s"></animateTransform>

</g><g>
<path d="M0 541.9315384615384 L1803 541.9315384615384"></path>
<animateTransform attributeName="transform" type="translate" repeatCount="indefinite" calcMode="linear" keyTimes="0;1" values="0 0;0 47.276307692307675" begin="0s" dur="0.8333333333333334s"></animateTransform>

</g><g>
<path d="M0 589.207846153846 L1803 589.207846153846"></path>
<animateTransform attributeName="transform" type="translate" repeatCount="indefinite" calcMode="linear" keyTimes="0;1" values="0 0;0 51.57415384615383" begin="0s" dur="0.8333333333333334s"></animateTransform>

</g><g>
<path d="M0 640.7819999999999 L1803 640.7819999999999"></path>
<animateTransform attributeName="transform" type="translate" repeatCount="indefinite" calcMode="linear" keyTimes="0;1" values="0 0;0 55.87199999999998" begin="0s" dur="0.8333333333333334s"></animateTransform>

</g><g>
<path d="M0 696.6539999999999 L1803 696.6539999999999"></path>
<animateTransform attributeName="transform" type="translate" repeatCount="indefinite" calcMode="linear" keyTimes="0;1" values="0 0;0 60.16984615384614" begin="0s" dur="0.8333333333333334s"></animateTransform>

</g><g>
<path d="M0 756.823846153846 L1803 756.823846153846"></path>
<animateTransform attributeName="transform" type="translate" repeatCount="indefinite" calcMode="linear" keyTimes="0;1" values="0 0;0 64.46769230769229" begin="0s" dur="0.8333333333333334s"></animateTransform>

</g><g>
<path d="M0 821.2915384615383 L1803 821.2915384615383"></path>
<animateTransform attributeName="transform" type="translate" repeatCount="indefinite" calcMode="linear" keyTimes="0;1" values="0 0;0 68.76553846153844" begin="0s" dur="0.8333333333333334s"></animateTransform>

</g><g>
<path d="M0 890.0570769230767 L1803 890.0570769230767"></path>
<animateTransform attributeName="transform" type="translate" repeatCount="indefinite" calcMode="linear" keyTimes="0;1" values="0 0;0 73.06338461538459" begin="0s" dur="0.8333333333333334s"></animateTransform>

</g><rect x="0" y="0" width="1803" height="873" fill="url(#fg-lg-0.009430208578023347)"></rect></g>
</svg>